Run_30001
nRows=4
nColumns=161

# SIMM Motion File Header:
name Run_30001
datacolumns 161
datarows 4
otherdata 1
range 4.06666700 4.09166700
endheader
time	pelvis_tilt	pelvis_list	pelvis_rotation	pelvis_tx	pelvis_ty	pelvis_tz	hip_flexion_r	hip_adduction_r	hip_rotation_r	knee_angle_r	ankle_angle_r	hip_flexion_l	hip_adduction_l	hip_rotation_l	knee_angle_l	ankle_angle_l	lumbar_extension	lumbar_bending	lumbar_rotation	arm_flex_r	arm_add_r	arm_rot_r	elbow_flex_r	pro_sup_r	arm_flex_l	arm_add_l	arm_rot_l	elbow_flex_l	pro_sup_l	subtalar_angle_r	mtp_angle_r	subtalar_angle_l	mtp_angle_l	wrist_flex_r	wrist_dev_r	wrist_flex_l	wrist_dev_l	LASI_tx	LASI_ty	LASI_tz	RASI_tx	RASI_ty	RASI_tz	LPSI_tx	LPSI_ty	LPSI_tz	RPSI_tx	RPSI_ty	RPSI_tz	RTH1_tx	RTH1_ty	RTH1_tz	RTH3_tx	RTH3_ty	RTH3_tz	LTH1_tx	LTH1_ty	LTH1_tz	LTH2_tx	LTH2_ty	LTH2_tz	LTH3_tx	LTH3_ty	LTH3_tz	RTB1_tx	RTB1_ty	RTB1_tz	RTB2_tx	RTB2_ty	RTB2_tz	RTB3_tx	RTB3_ty	RTB3_tz	LTB1_tx	LTB1_ty	LTB1_tz	LTB2_tx	LTB2_ty	LTB2_tz	LTB3_tx	LTB3_ty	LTB3_tz	RCAL_tx	RCAL_ty	RCAL_tz	RTOE_tx	RTOE_ty	RTOE_tz	RMT5_tx	RMT5_ty	RMT5_tz	LCAL_tx	LCAL_ty	LCAL_tz	LTOE_tx	LTOE_ty	LTOE_tz	LMT5_tx	LMT5_ty	LMT5_tz	LACR_tx	LACR_ty	LACR_tz	RACR_tx	RACR_ty	RACR_tz	CLAV_tx	CLAV_ty	CLAV_tz	C7_tx	C7_ty	C7_tz	RUA1_tx	RUA1_ty	RUA1_tz	RUA2_tx	RUA2_ty	RUA2_tz	RUA3_tx	RUA3_ty	RUA3_tz	RLEL_tx	RLEL_ty	RLEL_tz	RMEL_tx	RMEL_ty	RMEL_tz	LUA1_tx	LUA1_ty	LUA1_tz	LUA2_tx	LUA2_ty	LUA2_tz	LUA3_tx	LUA3_ty	LUA3_tz	LLEL_tx	LLEL_ty	LLEL_tz	LMEL_tx	LMEL_ty	LMEL_tz	RFAsuperior_tx	RFAsuperior_ty	RFAsuperior_tz	RFAradius_tx	RFAradius_ty	RFAradius_tz	RFAulna_tx	RFAulna_ty	RFAulna_tz	LFAsuperior_tx	LFAsuperior_ty	LFAsuperior_tz	LFAradius_tx	LFAradius_ty	LFAradius_tz	LFAulna_tx	LFAulna_ty	LFAulna_tz
      4.06666700	     -3.40209181	      4.75959771	      3.46153359	      0.93411115	      0.95244420	     -0.32232219	     40.52884490	     -6.00400146	      0.85563505	   -101.98075748	      2.54233342	      1.94865505	     14.75639085	      9.88160022	    -29.48692993	     19.10674786	    -10.04663314	     -5.10338389	    -16.58332476	    -38.30425233	    -23.87305754	      1.54891258	     69.44500134	    108.32912631	    -21.16086970	    -21.47954691	     -4.46806369	    113.32499528	    112.19935805	      0.00000000	      0.00000000	      0.00000000	      0.00000000	      0.00000000	      0.00000000	      0.00000000	      0.00000000	      0.93976732	      0.98428721	     -0.43574840	      0.95355135	      0.96985308	     -0.20199361	      0.78372864	      1.01798568	     -0.35824551	      0.78467883	      1.01017463	     -0.26165774	      0.92751011	      0.81320952	     -0.13888617	      1.06163719	      0.59922920	     -0.16936094	      0.87612208	      0.79238032	     -0.48458665	      0.92392733	      0.68067843	     -0.45850563	      0.84802436	      0.57327866	     -0.42114325	      1.01650357	      0.42704007	     -0.23793019	      0.94895950	      0.43516261	     -0.16799115	      0.90008278	      0.38965926	     -0.23442815	      0.83379507	      0.35151993	     -0.32391581	      0.76515149	      0.29553521	     -0.39104443	      0.73815690	      0.21162981	     -0.31092120	      0.70128900	      0.41058395	     -0.22753134	      0.78789090	      0.21831990	     -0.24499002	      0.76877030	      0.23464547	     -0.15220518	      0.57129591	      0.12889018	     -0.30321221	      0.76943637	      0.07539570	     -0.27050637	      0.75423502	      0.05957637	     -0.35916067	      0.96988183	      1.43147093	     -0.51052183	      0.90095825	      1.44233682	     -0.12196661	      0.99539072	      1.42768722	     -0.28427028	      0.88143139	      1.49218660	     -0.34039954	      0.80195920	      1.34066756	     -0.07525100	      0.73734912	      1.35622503	     -0.11185097	      0.73351084	      1.28558886	     -0.05212567	      0.67591220	      1.24066785	     -0.03618032	      0.65130583	      1.22488575	     -0.11325902	      0.91405825	      1.30141348	     -0.57317392	      0.84412166	      1.25908968	     -0.57800275	      0.90971083	      1.21480740	     -0.58961026	      0.86496408	      1.14444559	     -0.62013315	      0.81034536	      1.13971706	     -0.55124624	      0.72726156	      1.12169660	     -0.03194752	      0.76538685	      1.01407288	     -0.07903975	      0.71572034	      0.99731602	     -0.03178406	      0.97780052	      1.10662912	     -0.56640809	      1.04737155	      1.11875330	     -0.46139264	      1.06192860	      1.06526245	     -0.50410942
      4.07500000	     -3.57864164	      3.82233931	      3.29256714	      0.93642159	      0.95834797	     -0.32212352	     41.41444876	     -4.69059339	      0.49090524	    -98.76620687	      3.36209235	     -1.11606088	     13.39147675	     11.19826322	    -26.35568077	     16.78111472	     -9.30401372	     -4.03789158	    -17.25753188	    -39.93444631	    -24.52606934	      1.11281745	     70.67412460	    107.57217040	    -21.20355094	    -21.50164281	     -4.41597683	    114.59568995	    112.50745391	      0.00000000	      0.00000000	      0.00000000	      0.00000000	      0.00000000	      0.00000000	      0.00000000	      0.00000000	      0.94235180	      0.98813066	     -0.43642635	      0.95553789	      0.97709158	     -0.20262928	      0.78655232	      1.02350995	     -0.35948494	      0.78634997	      1.01729490	     -0.26237554	      0.93095910	      0.82102874	     -0.13822185	      1.06781538	      0.60880795	     -0.17199591	      0.87410532	      0.79661225	     -0.48364327	      0.91639712	      0.68370057	     -0.45642388	      0.83348441	      0.57962824	     -0.42044279	      1.03091100	      0.43132274	     -0.24018280	      0.96250133	      0.43505873	     -0.17056741	      0.91678773	      0.38622083	     -0.23638258	      0.81268492	      0.35701538	     -0.32484002	      0.74260066	      0.30233749	     -0.39191074	      0.71636852	      0.21739108	     -0.31234184	      0.71668096	      0.39231015	     -0.22985728	      0.81877626	      0.20787819	     -0.24766483	      0.79859597	      0.22282965	     -0.15394012	      0.54966570	      0.13623005	     -0.30573430	      0.74533572	      0.07626869	     -0.27130512	      0.72975954	      0.05960463	     -0.35946109	      0.97238567	      1.43883227	     -0.50906331	      0.89654988	      1.45046298	     -0.12260464	      0.99409095	      1.43499604	     -0.28239069	      0.88089219	      1.49844351	     -0.34074738	      0.79605057	      1.35071312	     -0.07649474	      0.73227875	      1.36709872	     -0.11402771	      0.72683646	      1.29629113	     -0.05422702	      0.66813552	      1.25218981	     -0.03946733	      0.64499611	      1.23684390	     -0.11721262	      0.91894500	      1.30848339	     -0.57291206	      0.84983056	      1.26544457	     -0.58007262	      0.91603088	      1.22199099	     -0.58967830	      0.87243807	      1.15109977	     -0.62090201	      0.81618567	      1.14595666	     -0.55306517	      0.71913099	      1.13359828	     -0.03392344	      0.75837107	      1.02564176	     -0.07997464	      0.70749882	      1.00891643	     -0.03410063	      0.98474942	      1.11681620	     -0.56429302	      1.05149596	      1.13167812	     -0.45774728	      1.06866204	      1.07835155	     -0.49974055
      4.08333300	     -3.72750622	      2.88211325	      3.08399377	      0.93912607	      0.96459473	     -0.32153298	     42.00804587	     -3.27680009	      0.17163943	    -95.16413389	      4.07244326	     -4.12326805	     11.90877258	     12.23908106	    -23.20092532	     13.78663956	     -8.57506280	     -3.01116517	    -17.85937535	    -41.56055496	    -25.06261751	      0.57997408	     71.90841742	    107.08478556	    -21.41347430	    -21.57771073	     -4.36838394	    115.83211676	    112.96223200	      0.00000000	      0.00000000	      0.00000000	      0.00000000	      0.00000000	      0.00000000	      0.00000000	      0.00000000	      0.94524984	      0.99228245	     -0.43634385	      0.95774064	      0.98465558	     -0.20299474	      0.78983515	      1.02940508	     -0.36047078	      0.78838790	      1.02473658	     -0.26278767	      0.93513885	      0.82925493	     -0.13756232	      1.07308564	      0.61779069	     -0.17488966	      0.87272392	      0.80131191	     -0.48281462	      0.90897882	      0.68757041	     -0.45443542	      0.81991030	      0.58713252	     -0.42028584	      1.04449471	      0.43530475	     -0.24248254	      0.97573951	      0.43412113	     -0.17339141	      0.93348020	      0.38223213	     -0.23864448	      0.79236429	      0.36411419	     -0.32640206	      0.72092622	      0.31075910	     -0.39340959	      0.69546578	      0.22474375	     -0.31429265	      0.73332298	      0.37321305	     -0.23231406	      0.85021651	      0.19789559	     -0.25083172	      0.82906155	      0.21117713	     -0.15625802	      0.52939067	      0.14521204	     -0.30859027	      0.72174133	      0.07704907	     -0.27214023	      0.70574428	      0.05979895	     -0.36005326	      0.97494104	      1.44637828	     -0.50747623	      0.89252013	      1.45881622	     -0.12336063	      0.99291718	      1.44258763	     -0.28048542	      0.88036897	      1.50486249	     -0.34104424	      0.79053821	      1.36102630	     -0.07794858	      0.72769159	      1.37826330	     -0.11652969	      0.72067147	      1.30720066	     -0.05652505	      0.66093157	      1.26378110	     -0.04301954	      0.63935216	      1.24887904	     -0.12149032	      0.92368393	      1.31599784	     -0.57272171	      0.85523054	      1.27250877	     -0.58191669	      0.92186298	      1.22973153	     -0.58988075	      0.87938495	      1.15841164	     -0.62182201	      0.82153512	      1.15273305	     -0.55503677	      0.71171388	      1.14558503	     -0.03615972	      0.75215579	      1.03725261	     -0.08126021	      0.70026672	      1.02060358	     -0.03657122	      0.99093170	      1.12730409	     -0.56237814	      1.05477455	      1.14441769	     -0.45434859	      1.07445806	      1.09145170	     -0.49567258
      4.09166700	     -3.84376179	      1.94980820	      2.85219208	      0.94216614	      0.97108839	     -0.32075122	     42.31512388	     -1.81200527	     -0.07593715	    -91.18994606	      4.65102494	     -7.06212265	     10.35328916	     12.96836620	    -20.03119208	     10.09495138	     -7.87244517	     -2.00985664	    -18.39964585	    -43.17301539	    -25.50164277	     -0.05016653	     73.13188514	    106.72606011	    -21.74681749	    -21.67167456	     -4.29332422	    116.99836728	    113.52491203	      0.00000000	      0.00000000	      0.00000000	      0.00000000	      0.00000000	      0.00000000	      0.00000000	      0.00000000	      0.94853321	      0.99686120	     -0.43586084	      0.96014643	      0.99245079	     -0.20317498	      0.79348077	      1.03555653	     -0.36132090	      0.79083583	      1.03233022	     -0.26310781	      0.93988602	      0.83784689	     -0.13714483	      1.07745628	      0.62610347	     -0.17793845	      0.87148965	      0.80648293	     -0.48210118	      0.90175757	      0.69235440	     -0.45268434	      0.80733010	      0.59560260	     -0.42076186	      1.05726308	      0.43889004	     -0.24482887	      0.98878893	      0.43245033	     -0.17628910	      0.95030202	      0.37773873	     -0.24116783	      0.77303929	      0.37253054	     -0.32863692	      0.70045140	      0.32057117	     -0.39555546	      0.67579827	      0.23335600	     -0.31691352	      0.75128167	      0.35349381	     -0.23485857	      0.88211631	      0.18843935	     -0.25430548	      0.86018630	      0.19978835	     -0.15925178	      0.51071406	      0.15562082	     -0.31167309	      0.69871233	      0.07759424	     -0.27301242	      0.68222027	      0.06003901	     -0.36085324	      0.97748314	      1.45401218	     -0.50582884	      0.88890363	      1.46713593	     -0.12419806	      0.99186897	      1.45027882	     -0.27866126	      0.87988003	      1.51136397	     -0.34130063	      0.78546194	      1.37137769	     -0.07960974	      0.72363364	      1.38943107	     -0.11936004	      0.71497478	      1.31813564	     -0.05904440	      0.65429016	      1.27528253	     -0.04677857	      0.63426790	      1.26064871	     -0.12588853	      0.92830402	      1.32379672	     -0.57257279	      0.86032270	      1.28014271	     -0.58351319	      0.92723988	      1.23784084	     -0.59018805	      0.88584033	      1.16619147	     -0.62285365	      0.82642036	      1.15991525	     -0.55710824	      0.70498102	      1.15745602	     -0.03863476	      0.74669591	      1.04885622	     -0.08273725	      0.69392640	      1.03217301	     -0.03916784	      0.99643628	      1.13789130	     -0.56065614	      1.05733499	      1.15680822	     -0.45115912	      1.07939639	      1.10432806	     -0.49183881
